<?xml version="1.0" standalone="no"?>
<!DOCTYPE svg PUBLIC "-//W3C//DTD SVG 20010904//EN"
 "http://www.w3.org/TR/2001/REC-SVG-20010904/DTD/svg10.dtd">
<svg version="1.0" xmlns="http://www.w3.org/2000/svg"
 width="260.000000pt" height="260.000000pt" viewBox="0 0 260.000000 260.000000"
 preserveAspectRatio="xMidYMid meet">
<metadata>
Created by potrace 1.11, written by Peter Selinger 2001-2013
</metadata>
<g transform="translate(0.000000,260.000000) scale(0.100000,-0.100000)"
fill="#000000" stroke="none">
<path d="M1188 2595 c-1 -1 -23 -5 -48 -9 -73 -9 -101 -15 -185 -42 -338 -108
-614 -364 -757 -704 -38 -89 -73 -200 -82 -260 -3 -19 -10 -57 -15 -85 -15
-78 -7 -367 13 -456 16 -76 48 -185 66 -224 87 -198 167 -321 290 -445 537
-539 1397 -449 1823 192 82 123 161 305 186 428 6 30 14 66 18 80 3 14 8 113
9 220 3 165 1 209 -16 285 -30 135 -55 208 -115 331 -171 353 -494 604 -867
675 -56 10 -311 22 -320 14z"/>
</g>
</svg>
